<svg preserveAspectRatio="none" width="100%" height="100%" overflow="visible" style="display: block;" viewBox="0 0 117 38" fill="none" xmlns="http://www.w3.org/2000/svg">
<path id="Union" d="M29.4551 32.4551C29.4551 33.3601 29.6102 34.0105 29.9102 34.3955C30.2101 34.7752 30.6799 34.9648 31.3096 34.9648C31.6896 34.9648 32.0498 34.89 32.3848 34.75C33.4647 34.295 34.1895 33.205 34.1895 32.04L34.1846 32.0449V24.5205H37.2549V37.3604H34.625L34.3301 35.2402C34.1851 35.4702 33.8648 36.045 33.5049 36.415C33.0649 36.87 32.5895 37.1602 32.0645 37.3652C31.5346 37.5701 30.9649 37.6748 30.3701 37.6748C29.4951 37.6748 28.7443 37.4899 28.1543 37.1299C27.5595 36.7699 27.1093 36.2347 26.8193 35.5449C26.5294 34.86 26.3848 34.0095 26.3848 33.0146V24.5156H29.4551V32.4551ZM18.085 24.2051C18.88 24.2051 19.6604 24.36 20.4004 24.665C21.1353 24.965 21.7956 25.4104 22.3506 25.9854L22.3457 25.9902C22.9006 26.5652 23.3505 27.2805 23.6904 28.1104C24.0303 28.9403 24.2002 29.9002 24.2002 30.9551C24.2002 32.01 24.0303 32.9699 23.6904 33.7998C23.3555 34.6297 22.9006 35.3401 22.3457 35.915C21.7908 36.4899 21.1303 36.9296 20.3955 37.2246C19.6555 37.5196 18.8751 37.6699 18.0801 37.6699C17.2851 37.6699 16.5102 37.5196 15.7803 37.2246C15.0503 36.9296 14.395 36.49 13.8301 35.915C13.2651 35.3401 12.8153 34.6249 12.4854 33.7949C12.1554 32.965 11.9902 32.0051 11.9902 30.9502C11.9902 29.8953 12.1554 28.9354 12.4854 28.1055C12.8103 27.2706 13.2652 26.5603 13.8301 25.9854C14.3951 25.4154 15.0503 24.97 15.7803 24.665C16.5102 24.3601 17.2901 24.2051 18.085 24.2051ZM54.21 25.6055C55.6399 24.3705 57.595 23.89 59.5049 24.4199C61.1598 24.8749 62.1598 25.935 62.7148 27.3799C62.8448 27.7098 62.9453 28.0598 63.0303 28.4297L63.0352 28.4346C63.2802 29.5346 63.2906 30.6451 63.1006 31.8301H54.9297C55.0447 32.76 55.3151 33.5849 55.875 34.2148C56.105 34.4698 56.3856 34.6998 56.7256 34.8848C57.9354 35.5395 59.4546 35.2098 60.2646 34.1152C60.3896 33.9452 60.5101 33.7549 60.6201 33.5449C61.45 33.7649 62.2349 33.9698 63.1797 34.2197C62.9447 34.8347 62.6304 35.4152 62.1904 35.9102C61.4005 36.805 60.3053 37.3395 59.1455 37.5596C56.6956 38.0195 54.1954 36.9101 52.9004 34.7803C51.5204 32.5153 51.6153 29.3752 52.9502 27.1152C53.2951 26.5304 53.7251 26.0254 54.21 25.6055ZM97.5098 24.1904C98.3048 24.1904 99.0852 24.3454 99.8252 24.6504C100.56 24.9504 101.22 25.3948 101.775 25.9697L101.771 25.9746C102.325 26.5496 102.775 27.2648 103.115 28.0947C103.455 28.9247 103.625 29.8854 103.625 30.9404C103.625 31.9952 103.455 32.9553 103.115 33.7852C102.78 34.6151 102.325 35.3254 101.771 35.9004C101.216 36.4753 100.555 36.915 99.8203 37.21C99.0803 37.505 98.2999 37.6553 97.5049 37.6553C96.71 37.6552 95.935 37.5049 95.2051 37.21C94.4751 36.915 93.8198 36.4753 93.2549 35.9004C92.69 35.3255 92.2353 34.6101 91.9053 33.7803C91.5753 32.9503 91.4102 31.9896 91.4102 30.9346C91.4102 29.8797 91.5753 28.9197 91.9053 28.0898C92.2353 27.2549 92.6899 26.5447 93.2549 25.9697C93.8198 25.3998 94.4752 24.9554 95.2051 24.6504C95.935 24.3454 96.7149 24.1905 97.5098 24.1904ZM78.6348 24.2051C79.8448 24.1601 81.1147 24.4602 82.0947 25.2002C82.8796 25.7901 83.42 26.6198 83.79 27.5146C82.95 27.7196 82.0595 27.9904 81.2295 28.1904C81.2295 28.1904 81.0895 27.9053 81.0195 27.7803C80.5195 26.8753 79.5045 26.3602 78.4795 26.5752C77.8647 26.7052 77.1898 27.14 77.0996 27.8047C77.0496 28.1746 77.1794 28.5603 77.4443 28.8203C77.8093 29.1803 78.4447 29.2952 78.9297 29.4102C80.2024 29.7146 81.6696 29.9041 82.6943 30.7949C83.6192 31.5998 84.0645 32.7498 83.8896 33.9746C83.7746 34.7946 83.3995 35.5799 82.8145 36.1699C81.8395 37.1599 80.4294 37.6099 79.0645 37.6299C78.1246 37.6398 77.1644 37.4498 76.3145 37.0498C75.0946 36.4698 74.2597 35.4596 73.7598 34.2197C74.6947 33.9748 75.4897 33.755 76.3096 33.54C77.0595 34.9499 78.1496 35.5048 79.6094 35.21C80.2593 35.08 80.8643 34.635 80.9844 33.9551C81.1544 33.0151 80.3846 32.4498 79.5596 32.2598C78.4147 31.9998 77.2449 31.765 76.165 31.2852C73.44 30.0702 73.6702 26.5601 75.7402 25.1201C76.5802 24.5303 77.6149 24.2451 78.6348 24.2051ZM45.335 33.7451L49.0547 20.6152H52.3652L47.1455 37.3555H43.5303L38.3105 20.6152H41.6201L45.335 33.7451ZM112.69 24.1953C113.595 24.1953 114.36 24.3748 114.96 24.7246C115.565 25.0746 116.025 25.605 116.33 26.2949L116.325 26.3047C116.63 26.9947 116.785 27.845 116.785 28.835V37.3555H113.735V29.4199C113.735 28.5 113.57 27.8401 113.25 27.4551C112.93 27.0752 112.435 26.8799 111.78 26.8799C110.895 26.8799 110.04 27.2952 109.485 27.9902C109.075 28.5051 108.856 29.1498 108.855 29.8496V37.3496H105.806V24.5098H108.455L108.735 26.5752C109.395 25.1855 110.375 24.7103 111.01 24.4902C111.55 24.3002 112.115 24.1953 112.69 24.1953ZM6.54492 28.5498L9.75488 20.6055H13.0947L8.125 31.9648V37.3447H4.96973V31.9648L0 20.6055H3.33984L6.54492 28.5498ZM89.2305 37.3398H86.125V24.5H89.2305V37.3398ZM71.3447 24.25C72.5247 24.095 73.2002 24.4102 73.2002 24.4102L72.7852 27.3398C72.7852 27.3398 72.1446 27.1748 71.5996 27.1748C70.7547 27.1698 69.9349 27.4504 69.335 28.1104C68.8001 28.6953 68.5 29.7149 68.5 30.5498V37.3252H65.4053V24.4854H68.0693L68.375 26.6846C68.9351 25.4047 70.055 24.4151 71.3398 24.2451L71.3447 24.25ZM18.0801 26.7646C17.1753 26.7647 16.4553 27.1449 15.9453 27.8896C15.4253 28.6446 15.165 29.6952 15.165 30.9502C15.1651 32.2051 15.4303 33.2255 15.9453 33.9805C16.4553 34.7252 17.1753 35.1054 18.0801 35.1055C18.985 35.1055 19.7105 34.7254 20.2305 33.9805V33.9746C20.7552 33.2247 21.0205 32.215 21.0205 30.9453C21.0205 29.6753 20.7555 28.6446 20.2305 27.8896C19.7105 27.1448 18.985 26.7646 18.0801 26.7646ZM97.5049 26.75C96.6 26.7501 95.8801 27.1301 95.3701 27.875C94.8502 28.6299 94.5899 29.6798 94.5898 30.9346C94.5898 32.1895 94.8552 33.2099 95.3701 33.9648C95.8801 34.7098 96.6 35.0898 97.5049 35.0898C98.4099 35.0898 99.1353 34.7098 99.6553 33.9648V33.96C100.18 33.21 100.445 32.1997 100.445 30.9297C100.445 29.6599 100.18 28.6299 99.6553 27.875C99.1353 27.13 98.4099 26.75 97.5049 26.75ZM59.4453 26.9854C58.4853 26.4104 57.4746 26.4354 56.5146 26.9854C56.485 27.0003 56.4603 27.0203 56.4355 27.0352C55.9855 27.3102 55.655 27.6652 55.415 28.0752C55.1351 28.5552 54.9801 29.1155 54.9102 29.7305H60.5254C60.6404 28.8955 60.3547 27.9102 59.8447 27.3252C59.7248 27.1903 59.5902 27.0703 59.4453 26.9854ZM87.6748 19.6699C88.1996 19.6699 88.6444 19.8298 88.9844 20.1445C89.3244 20.4595 89.5 20.8751 89.5 21.3701C89.5 21.865 89.3244 22.275 88.9795 22.585C88.6395 22.8948 88.1948 23.0498 87.6699 23.0498C87.1449 23.0498 86.7044 22.895 86.3594 22.585C86.0146 22.275 85.8399 21.8649 85.8398 21.3701C85.8398 20.8751 86.0095 20.4645 86.3545 20.1445C86.6945 19.8295 87.14 19.6699 87.665 19.6699H87.6748ZM57.3906 2.94531C57.9953 2.94536 58.535 3.04537 59.0098 3.24023C59.4848 3.44023 59.8955 3.71984 60.2305 4.08984C60.5654 4.4598 60.825 4.90001 61 5.41992C61.175 5.93982 61.2656 6.52484 61.2656 7.17969C61.2656 8.05964 61.105 8.81987 60.79 9.46484C60.4701 10.1097 60.0204 10.605 59.4355 10.96C58.8455 11.315 58.1498 11.4902 57.3398 11.4902C56.725 11.4902 56.18 11.3903 55.7051 11.1953C55.2251 10.9953 54.8202 10.7147 54.4902 10.3447H54.4951C54.1652 9.97477 53.9103 9.52977 53.7354 9.00488C53.5604 8.48496 53.4707 7.89512 53.4707 7.24023C53.4707 6.36023 53.6302 5.59996 53.9502 4.95996C54.2702 4.325 54.7303 3.82959 55.3203 3.47461C55.9103 3.11972 56.6007 2.94531 57.3906 2.94531ZM71.9697 2.95996C72.4997 2.95996 72.9454 3.05512 73.3154 3.24512C73.6852 3.43512 73.9653 3.73004 74.1553 4.12988C74.3452 4.52484 74.4404 5.04491 74.4404 5.6748V11.2451H73.085V5.98535C73.085 5.50035 73.0299 5.11961 72.9199 4.84961C72.81 4.57995 72.65 4.39026 72.4453 4.28027C72.2353 4.17028 71.975 4.11524 71.665 4.11523C71.435 4.11523 71.1898 4.15523 70.9248 4.24023C70.66 4.32022 70.4051 4.46498 70.1553 4.6748C70.0203 4.7848 69.9 4.92031 69.79 5.07031C69.6801 5.22027 69.5951 5.39039 69.5352 5.57031C69.4702 5.75523 69.4404 5.95503 69.4404 6.16992V11.2402H68.085V5.99512C68.085 5.52512 68.0299 5.15488 67.9199 4.87988C67.815 4.60509 67.6552 4.41005 67.4404 4.29004C67.2304 4.17004 66.9699 4.11035 66.6699 4.11035L66.6797 4.13477C66.4099 4.1348 66.155 4.18991 65.9102 4.2998C65.6652 4.4098 65.4246 4.57504 65.1846 4.79004C65.0697 4.89499 64.9549 5.02004 64.835 5.16992C64.72 5.31991 64.6248 5.50487 64.5498 5.71484C64.4748 5.92979 64.4404 6.17983 64.4404 6.46973V11.2598H63.085V3.21484H64.4248V4.45508C64.5948 4.22508 64.7701 4.01484 64.9551 3.83984C65.265 3.54995 65.5947 3.32955 65.9346 3.18457C66.2746 3.03457 66.62 2.96484 66.96 2.96484C67.655 2.96484 68.195 3.14035 68.585 3.48535C68.8699 3.73534 69.0854 4.07544 69.2354 4.48535C69.4104 4.24535 69.59 4.01996 69.79 3.83496C70.1 3.54504 70.4397 3.32468 70.8096 3.17969C71.1795 3.02972 71.5648 2.95999 71.9697 2.95996ZM52.0156 3.06055C52.1605 3.06056 52.2904 3.06521 52.4053 3.0752C52.5152 3.0852 52.6255 3.10012 52.7305 3.12012L52.5605 4.37988C52.4555 4.35988 52.355 4.3402 52.25 4.3252C52.1451 4.31021 52.0302 4.29981 51.9053 4.2998C51.6554 4.2998 51.4053 4.33976 51.1504 4.42969C50.8954 4.51969 50.6502 4.67 50.4102 4.875C50.2653 5.00987 50.1354 5.15475 50.0205 5.30957C49.9105 5.46454 49.8206 5.64012 49.7656 5.83008C49.7106 6.02005 49.6807 6.23 49.6807 6.45996V11.2402H48.3252V3.19531H49.665V4.44531C49.92 4.07531 50.2053 3.77004 50.5303 3.54004C50.9803 3.22007 51.4756 3.06055 52.0156 3.06055ZM46.0703 0C46.3051 3.40614e-06 46.5349 0.0150723 46.7598 0.0400391C46.9798 0.0700391 47.2055 0.12043 47.4355 0.19043L47.2148 1.25C47.05 1.20006 46.8901 1.16538 46.7402 1.15039C46.5902 1.13539 46.4399 1.125 46.2949 1.125C45.9301 1.12505 45.6203 1.22021 45.3604 1.41016C45.1004 1.60015 44.9707 1.94998 44.9707 2.45996V3.19043H47.0098V4.26465H44.9707V11.2354H43.625V4.26465H42.3652V3.19043H43.625V2.49023C43.625 1.91037 43.7351 1.44016 43.96 1.0752C44.185 0.710195 44.4805 0.439648 44.8555 0.264648C45.2304 0.0897493 45.6354 0 46.0703 0ZM57.3506 4.07031C56.7806 4.07031 56.3152 4.19989 55.9502 4.46484C55.5902 4.72984 55.3204 5.10031 55.1504 5.57031H55.1455C54.9755 6.04026 54.8906 6.59506 54.8906 7.20996C54.8906 7.82488 54.9757 8.36977 55.1406 8.84473C55.3106 9.31973 55.5705 9.69484 55.9355 9.96484C56.2955 10.2348 56.7706 10.3701 57.3506 10.3701C57.9304 10.3701 58.4007 10.2348 58.7656 9.96484C59.1254 9.69486 59.3955 9.3148 59.5654 8.83496C59.7354 8.35506 59.8203 7.80515 59.8203 7.19531C59.8203 6.58544 59.7354 6.04025 59.5654 5.57031C59.3955 5.10038 59.1305 4.72984 58.7656 4.46484C58.4057 4.1999 57.9204 4.07037 57.3506 4.07031Z" fill="var(--fill-0, white)"/>
</svg>
