<svg preserveAspectRatio="none" width="100%" height="100%" overflow="visible" style="display: block;" viewBox="0 0 61 63" fill="none" xmlns="http://www.w3.org/2000/svg">
<path id="Vector" fill-rule="evenodd" clip-rule="evenodd" d="M0.0047066 29.0691L0.00466368 44.5137C0.00415585 47.0979 0.0036616 49.6093 0.282148 51.6806C0.596099 54.0158 1.361 56.6804 3.57435 58.8938C5.78769 61.1071 8.45234 61.872 10.7875 62.186C12.8588 62.4645 15.3702 62.464 17.9544 62.4634H42.2426C44.8267 62.464 47.3381 62.4645 49.4094 62.186C51.7446 61.872 54.4092 61.1071 56.6226 58.8938C58.8359 56.6804 59.6008 54.0158 59.9148 51.6806C60.1933 49.6093 60.1928 47.0979 60.1923 44.5138L60.1922 29.0663C60.1922 28.8619 60.1933 28.6512 60.1945 28.4349C60.2068 26.096 60.2226 23.109 58.8692 20.4464C57.5158 17.7838 55.0934 16.0361 53.1966 14.6677C53.0213 14.5412 52.8502 14.4178 52.6851 14.2974L37.1396 2.95654C36.4109 2.42429 35.5024 1.76059 34.6312 1.26662C33.562 0.66043 32.0415 0.000349322 30.1085 1.38374e-07C28.1756 -0.000348768 26.6548 0.659183 25.5855 1.26498C24.7141 1.75863 23.8053 2.42199 23.0765 2.95397L7.51713 14.2962C7.3519 14.4167 7.18091 14.54 7.00542 14.6665C5.10729 16.0348 2.68313 17.7824 1.32869 20.4458C-0.025744 23.1092 -0.00993398 26.0975 0.00244567 28.4374C0.00359077 28.6537 0.0047066 28.8646 0.0047066 29.0691ZM27.0985 20.3697C27.0985 18.7128 28.4417 17.3697 30.0985 17.3697C31.7554 17.3697 33.0985 18.7128 33.0985 20.3697V26.3697H37.5985C39.2554 26.3697 40.5985 27.7128 40.5985 29.3697C40.5985 31.0265 39.2554 32.3697 37.5985 32.3697H33.0985V41.3697C33.0985 43.0265 31.7554 44.3697 30.0985 44.3697C28.4417 44.3697 27.0985 43.0265 27.0985 41.3697V32.3697H22.5985C20.9417 32.3697 19.5985 31.0265 19.5985 29.3697C19.5985 27.7128 20.9417 26.3697 22.5985 26.3697H27.0985V20.3697Z" fill="var(--fill-0, #3BC175)"/>
</svg>
